<svg width="19" height="35" viewBox="0 0 19 35" fill="none" xmlns="http://www.w3.org/2000/svg">
<path d="M0.47224 34.0563C0.676229 34.2672 0.918558 34.4345 1.18535 34.5487C1.45214 34.6629 1.73815 34.7217 2.027 34.7217C2.31585 34.7217 2.60186 34.6629 2.86865 34.5487C3.13544 34.4345 3.37777 34.2672 3.58176 34.0563L18.1807 18.9993C18.3436 18.8317 18.4728 18.6326 18.5609 18.4134C18.6491 18.1942 18.6945 17.9592 18.6945 17.7219C18.6945 17.4846 18.6491 17.2496 18.5609 17.0305C18.4728 16.8113 18.3436 16.6122 18.1807 16.4445L3.58176 1.38755C2.72093 0.499718 1.33307 0.499718 0.47224 1.38755C-0.388586 2.27539 0.134768 3.61216 0.995596 4.5L13.5756 17.7219L0.995596 31C0.152336 31.8697 -0.388586 33.1866 0.47224 34.0563Z" fill="black"/>
</svg>
